<svg xmlns="http://www.w3.org/2000/svg" width="24" height="27" viewBox="0 0 24 27">
  <g id="Group_375" data-name="Group 375" transform="translate(-26 -337)">
    <g id="Bounding_Boxes" transform="translate(26 337)">
      <path id="Path_3493" data-name="Path 3493" d="M0,0H24V24H0Z" fill="none"/>
    </g>
    <g id="people_alt-24px" transform="translate(26 340)">
      <g id="Group_363" data-name="Group 363">
        <rect id="Rectangle_737" data-name="Rectangle 737" width="24" height="24" fill="none"/>
      </g>
      <g id="Group_369" data-name="Group 369">
        <g id="Group_368" data-name="Group 368">
          <g id="Group_364" data-name="Group 364">
            <path id="Path_3597" data-name="Path 3597" d="M16.67,13.13A4.651,4.651,0,0,1,19,17v3h4V17C23,14.82,19.43,13.53,16.67,13.13Z" fill="#fff" fill-rule="evenodd"/>
          </g>
          <g id="Group_365" data-name="Group 365">
            <circle id="Ellipse_42" data-name="Ellipse 42" cx="4" cy="4" r="4" transform="translate(5 4)" fill="#fff"/>
          </g>
          <g id="Group_366" data-name="Group 366">
            <path id="Path_3598" data-name="Path 3598" d="M15,12a4,4,0,0,0,0-8,4.178,4.178,0,0,0-1.33.24,5.98,5.98,0,0,1,0,7.52A4.178,4.178,0,0,0,15,12Z" fill="#fff" fill-rule="evenodd"/>
          </g>
          <g id="Group_367" data-name="Group 367">
            <path id="Path_3599" data-name="Path 3599" d="M9,13c-2.67,0-8,1.34-8,4v3H17V17C17,14.34,11.67,13,9,13Z" fill="#fff" fill-rule="evenodd"/>
          </g>
        </g>
      </g>
    </g>
  </g>
</svg>
