<svg xmlns="http://www.w3.org/2000/svg" width="24" height="24" viewBox="0 0 24 24">
  <g id="Group_376" data-name="Group 376" transform="translate(-26 -389)">
    <g id="Bounding_Boxes" transform="translate(26 389)">
      <path id="Path_2418" data-name="Path 2418" d="M0,0H24V24H0Z" fill="none"/>
    </g>
    <g id="forum-24px" transform="translate(26 389)">
      <path id="Path_3600" data-name="Path 3600" d="M0,0H24V24H0Z" fill="none"/>
      <path id="Path_3601" data-name="Path 3601" d="M21,6H19v9H6v2a1,1,0,0,0,1,1H18l4,4V7A1,1,0,0,0,21,6Zm-4,6V3a1,1,0,0,0-1-1H3A1,1,0,0,0,2,3V17l4-4H16A1,1,0,0,0,17,12Z" fill="#fff"/>
    </g>
  </g>
</svg>
