<svg xmlns="http://www.w3.org/2000/svg" width="12" height="12" viewBox="0 0 12 12">
  <g id="Group_1222" data-name="Group 1222" transform="translate(-676.329 -904)">
    <path id="Path_3878" data-name="Path 3878" d="M0,0H12V12H0Z" transform="translate(676.329 904)" fill="none"/>
    <path id="Path_3879" data-name="Path 3879" d="M12,5.7,11.3,5,8.5,7.8,5.7,5,5,5.7,7.8,8.5,5,11.3l.7.7L8.5,9.2,11.3,12l.7-.7L9.2,8.5Z" transform="translate(673.829 901.5)" fill="#fff"/>
    <path id="Path_3878-2" data-name="Path 3878" d="M0,0H12V12H0Z" transform="translate(676.329 904)" fill="none"/>
    <path id="Path_3879-2" data-name="Path 3879" d="M12,5.7,11.3,5,8.5,7.8,5.7,5,5,5.7,7.8,8.5,5,11.3l.7.7L8.5,9.2,11.3,12l.7-.7L9.2,8.5Z" transform="translate(673.5 901.5)" fill="#fff" stroke="#fff" stroke-width="0.5"/>
  </g>
</svg>
