<svg xmlns="http://www.w3.org/2000/svg" width="9.388" height="9.291" viewBox="0 0 9.388 9.291">
  <g id="Group_1227" data-name="Group 1227" transform="translate(-915.635 -999.284)">
    <path id="Path_3874" data-name="Path 3874" d="M6.425,3.77A3.227,3.227,0,0,1,9.654,7a3.27,3.27,0,0,1-.2,1.107l.7.7A4.1,4.1,0,0,0,10.577,7,4.152,4.152,0,0,0,6.425,2.847a4.1,4.1,0,0,0-1.808.42l.7.7A3.27,3.27,0,0,1,6.425,3.77Zm4.613-.129L8.916,1.86l-.6.706,2.122,1.781Zm-8.8-1.582-.586.59.614.614-.512.429.655.655.512-.434.369.369a4.15,4.15,0,0,0,5.854,5.854l1.015,1.015.586-.586L2.683,2.51ZM8.487,9.486A3.231,3.231,0,0,1,3.938,4.937Zm-3.9-6.971L3.934,1.86l-.4.328.655.655.4-.328Z" transform="translate(913.985 997.424)" fill="#fff"/>
  </g>
</svg>
