<svg xmlns="http://www.w3.org/2000/svg" width="12.319" height="11.811" viewBox="0 0 12.319 11.811">
  <g id="Group_1221" data-name="Group 1221" transform="translate(-434.981 -998)">
    <path id="Path_3868" data-name="Path 3868" d="M0,0H11.811V11.811H0Z" transform="translate(434.981 998)" fill="none"/>
    <circle id="Ellipse_79" data-name="Ellipse 79" cx="2" cy="2" r="2" transform="translate(437.886 999.906)" fill="#fff"/>
    <path id="Path_3869" data-name="Path 3869" d="M4.937,8.4C3.623,8.4,1,9.057,1,10.366v.984H8.874v-.984C8.874,9.057,6.251,8.4,4.937,8.4ZM8.756,3.654l-.827.832a1.633,1.633,0,0,1,0,1.914l.827.832a2.518,2.518,0,0,0,0-3.578ZM10.385,2l-.8.8a3.926,3.926,0,0,1,0,5.285l.8.8A4.837,4.837,0,0,0,10.385,2Z" transform="translate(435.473 996.984)" fill="#fff"/>
  </g>
</svg>
