<svg xmlns="http://www.w3.org/2000/svg" width="10" height="10" viewBox="0 0 10 10">
  <g id="Group_1228" data-name="Group 1228" transform="translate(-1162 -905)">
    <rect id="Rectangle_1037" data-name="Rectangle 1037" width="10" height="10" transform="translate(1162 905)" fill="none"/>
    <path id="Path_3875" data-name="Path 3875" d="M3.537,2.136a3.249,3.249,0,0,1,1.837-.555A3.2,3.2,0,0,1,8.612,4.819a3.829,3.829,0,0,1-.5,1.8c-.009.019-.023.037-.037.06L7.395,6a2.872,2.872,0,0,0,.291-1.18A2.291,2.291,0,0,0,5.373,2.506a2.371,2.371,0,0,0-1.157.31ZM8.709,7.308l.662.662a5.092,5.092,0,0,0-.4-6.75l-.657.657a4.155,4.155,0,0,1,.393,5.431ZM5.373,3.663A1.051,1.051,0,0,0,5.1,3.7L6.493,5.092a1.051,1.051,0,0,0,.037-.273A1.157,1.157,0,0,0,5.373,3.663Zm5.177,6.8-8.5-8.5-.657.652.985.985a3.235,3.235,0,0,0-.241,1.226H3.06a2.4,2.4,0,0,1,.056-.486L6.174,7.391a2.648,2.648,0,0,0-1.05,1.342,1.608,1.608,0,0,1-.791,1.1.77.77,0,0,1-.347.074.928.928,0,0,1-.925-.925H2.135a1.852,1.852,0,0,0,2.609,1.689A2.518,2.518,0,0,0,6.007,9.029,1.863,1.863,0,0,1,6.8,8.081c.014-.009.023-.019.037-.028L9.9,11.116Z" transform="translate(1160.61 903.793)" fill="#fff"/>
  </g>
</svg>
