<svg xmlns="http://www.w3.org/2000/svg" width="12.707" height="13.166" viewBox="0 0 12.707 13.166">
  <g id="Group_1229" data-name="Group 1229" transform="translate(-1160 -952)">
    <path id="Path_3655" data-name="Path 3655" d="M0,0H12.706m0,13.166H0" transform="translate(1160 952)" fill="none"/>
    <path id="Path_3657" data-name="Path 3657" d="M0,0H12.706V13.166H0Z" transform="translate(1160 952)" fill="none"/>
    <path id="Path_3876" data-name="Path 3876" d="M3.068,1.936A2.54,2.54,0,0,1,4.5,1.5,2.5,2.5,0,0,1,7.035,4.033a2.993,2.993,0,0,1-.387,1.41c-.007.014-.018.029-.029.047l-.535-.535a2.245,2.245,0,0,0,.228-.922A1.791,1.791,0,0,0,4.5,2.225a1.854,1.854,0,0,0-.9.242ZM7.111,5.979l.517.517A3.98,3.98,0,0,0,7.317,1.22L6.8,1.733a3.248,3.248,0,0,1,.307,4.245ZM4.5,3.129a.821.821,0,0,0-.213.029L5.379,4.247a.821.821,0,0,0,.029-.213A.9.9,0,0,0,4.5,3.129ZM8.55,8.441,1.9,1.795,1.39,2.3l.77.77a2.529,2.529,0,0,0-.188.958H2.7a1.879,1.879,0,0,1,.043-.38l2.39,2.39a2.07,2.07,0,0,0-.821,1.049,1.257,1.257,0,0,1-.618.861.6.6,0,0,1-.271.058A.725.725,0,0,1,2.7,7.288H1.972a1.448,1.448,0,0,0,2.04,1.32A1.968,1.968,0,0,0,5,7.324a1.457,1.457,0,0,1,.618-.741l.029-.022L8.04,8.955Z" transform="translate(1161.61 953.873)" fill="#fff"/>
    <rect id="Rectangle_1038" data-name="Rectangle 1038" width="1" height="3" transform="translate(1168 954) rotate(90)" fill="#fff"/>
    <rect id="Rectangle_1039" data-name="Rectangle 1039" width="1" height="3" transform="translate(1166 953)" fill="#fff"/>
  </g>
</svg>
