<svg xmlns="http://www.w3.org/2000/svg" width="26" height="26" viewBox="0 0 26 26">
  <g id="Group_380" data-name="Group 380" transform="translate(-25 -600)">
    <g id="help-24px_1_" data-name="help-24px (1)" transform="translate(25 600)">
      <path id="Path_3606" data-name="Path 3606" d="M0,0H26V26H0Z" fill="none"/>
      <path id="Path_3607" data-name="Path 3607" d="M12.833,2A10.833,10.833,0,1,0,23.667,12.833,10.837,10.837,0,0,0,12.833,2Zm1.083,18.417H11.75V18.25h2.167Zm2.242-8.4-.975,1a3.688,3.688,0,0,0-1.267,3.066H11.75v-.542a4.36,4.36,0,0,1,1.267-3.066l1.343-1.365A2.118,2.118,0,0,0,15,9.583a2.167,2.167,0,0,0-4.333,0H8.5a4.333,4.333,0,0,1,8.667,0A3.447,3.447,0,0,1,16.159,12.021Z" transform="translate(0.167 0.167)" fill="#fff"/>
    </g>
  </g>
</svg>
