<svg xmlns="http://www.w3.org/2000/svg" width="28.339" height="29.169" viewBox="0 0 28.339 29.169">
  <g id="Group_379" data-name="Group 379" transform="translate(-23 -548)">
    <g id="Bounding_Boxes" transform="translate(26 548)">
      <path id="Path_2300" data-name="Path 2300" d="M0,0H24V24H0Z" fill="none"/>
    </g>
    <g id="settings-24px" transform="translate(23 548.831)">
      <path id="Path_3604" data-name="Path 3604" d="M0,0H28.339V28.339H0Z" fill="none"/>
      <path id="Path_3605" data-name="Path 3605" d="M22.119,14.845a8.353,8.353,0,0,0,.071-1.11,6.821,6.821,0,0,0-.083-1.11l2.4-1.866a.579.579,0,0,0,.142-.72l-2.267-3.92a.577.577,0,0,0-.7-.26L18.86,6.993a8.341,8.341,0,0,0-1.913-1.11l-.425-3a.571.571,0,0,0-.567-.484H11.421a.559.559,0,0,0-.555.484l-.425,3a8.525,8.525,0,0,0-1.913,1.11L5.706,5.86a.564.564,0,0,0-.7.26L2.754,10.04a.537.537,0,0,0,.142.72l2.4,1.866a6.569,6.569,0,0,0-.024,2.22l-2.4,1.866a.579.579,0,0,0-.142.72L5,21.352a.577.577,0,0,0,.7.26l2.822-1.134a8.342,8.342,0,0,0,1.913,1.11l.425,3a.58.58,0,0,0,.567.484h4.534a.551.551,0,0,0,.555-.484l.425-3a8.1,8.1,0,0,0,1.913-1.11l2.822,1.134a.564.564,0,0,0,.7-.26l2.267-3.92a.547.547,0,0,0-.142-.72Zm-8.431,3.141a4.251,4.251,0,1,1,4.251-4.251A4.263,4.263,0,0,1,13.688,17.986Z" transform="translate(0.481 0.434)" fill="#fff"/>
    </g>
  </g>
</svg>
